<svg xmlns="http://www.w3.org/2000/svg" width="122.44" height="36.98" viewBox="0 0 122.44 36.98"><defs><style>.cls-1{fill:#233e6b;fill-rule:evenodd}</style></defs><path class="cls-1" d="M7.97 32.48a17.37 17.37 0 0 1-8-14.75 17.69 17.69 0 1 1 31.58 11 20 20 0 0 1-4.17 3.76V22.12h1.75v7.08a21 21 0 0 0 2.57-3.57 16.51 16.51 0 0 0 2-7.93 16.05 16.05 0 1 0-32.1.11A16.92 16.92 0 0 0 6.14 29.2v-7.08h1.79v10.35zm3.5 1.79a10.32 10.32 0 0 1-1.75-.78V22.12h1.75v12.14zm3.54.93a5.14 5.14 0 0 1-.89-.19c-.19 0-.26 0-.86-.19v-24.2h1.78V35.2zm3.54.15a3.88 3.88 0 0 1-.71 0 7.6 7.6 0 0 1-1 0V10.62h1.75v24.73zm3.54-.56a14.83 14.83 0 0 1-1.75.45V10.62h1.7v24.17zm0-25.47l-4.43-3.43-4.43 3.43-1-1.27 5.4-4.21 5.4 4.21-1 1.27zm3.54 24.17l-1.79.82V22.12h1.79v11.36zM45.17 7.45V2.72a3 3 0 0 1 1.15-.22c1.34 0 2.12.89 2.12 2.38 0 1.75-.74 2.57-2.35 2.57zm-.86-5.66h-2.27v.78l1.27.22v10.88l-1.27.22v.74h4.8a6.57 6.57 0 0 0 2.46-.3 3.24 3.24 0 0 0 2-3.09 3.36 3.36 0 0 0-3-3.46c1.53-.74 2.23-1.68 2.23-3 0-1.9-1.41-3.13-3.54-3.13l-1.15.07h-1.56zm.86 6.55h.87c2.16 0 3.17.86 3.17 2.68a2.62 2.62 0 0 1-2.83 2.83 1.91 1.91 0 0 1-1.15-.3V8.34zm11.32-3.05c-2.23 0-3.76 2-3.76 4.92 0 2.72 1.45 4.58 3.57 4.58s3.76-2 3.76-4.92c0-2.76-1.45-4.58-3.57-4.58zm-.08.89c1 0 1.64 1.23 1.64 3.46 0 2.79-.6 4.21-1.71 4.21s-1.64-1.34-1.64-3.72.63-3.95 1.71-3.95zm11.63 3.73c0-3.09-1-4.58-3.13-4.58s-3.46 1.86-3.46 5c0 2.9 1.27 4.51 3.5 4.51 1.45 0 2.12-.48 3.05-2.16l-.82-.34c-.56.86-1 1.19-1.71 1.19-1.34 0-2-1-2.16-3.58zm-4.73-.89c.22-1.94.67-2.79 1.53-2.79s1.23.78 1.3 2.79zM46.36 33.67v-.78l-1.08-.22V21.79l1.12-.22v-.78h-4.28v.82l1.19.19v10.87l-1.19.22v.78zm9.68 0v-.78l-1-.22V26.9c0-1.53-.78-2.42-2.2-2.42a3.64 3.64 0 0 0-2.46 1.08v-1.12h-.52l-2.31.6v.75l1.08.15v6.73l-1.08.22v.78h3.84v-.78l-1-.22V26.6a2.64 2.64 0 0 1 1.75-.82c.71 0 1 .48 1 1.53v5.36l-1 .19v.81zm8.71-8v-1.08h-1.87a1.45 1.45 0 0 1-.34 0 2.93 2.93 0 0 1-.82-.15 4.62 4.62 0 0 0-1.19-.19 3 3 0 0 0-3.09 3.09 2.72 2.72 0 0 0 1.53 2.57c-1.19.74-1.68 1.34-1.68 2s.3.86 1 1.15c-1.08.71-1.45 1.19-1.45 1.94 0 1.15 1.3 1.9 3.31 1.9 2.68 0 4.43-1.27 4.43-3.24 0-1.38-.82-2-2.57-2.12l-2.23-.11c-.56 0-.78-.15-.78-.37s.26-.52.71-.82a3.18 3.18 0 0 0 4.13-2.83 2.6 2.6 0 0 0-.67-1.82zm-4.13-.56c.89 0 1.34.78 1.34 2.42 0 1.38-.41 2.09-1.27 2.09s-1.27-.71-1.27-2.27.37-2.23 1.19-2.23zm-.56 8.23c2.87.19 3.28.34 3.28 1.12s-1.15 1.53-2.68 1.53c-1.23 0-2-.48-2-1.3a1.7 1.7 0 0 1 .67-1.38h.71zm7.57-5.3c.22-2 .71-2.79 1.56-2.79s1.23.86 1.27 2.79zM77.5 14.6v-.78l-1-.19V8.01c0-1.68-.74-2.53-2.2-2.53a3.67 3.67 0 0 0-2.42 1.08V.94h-.52l-2.31.48v.63l1 .22v11.4l-1.12.22v.74h3.8v-.78l-.89-.19v-6a2.47 2.47 0 0 1 1.71-.82c.78 0 1.08.48 1.08 1.82v5l-.89.19v.74zm4.06-9.2h-.52l-2.23.6v.6l1.08.19v6.88l-1.08.22v.74h4.13v-.78l-1.3-.19V8.78a2.14 2.14 0 0 1 1.15-1.56l1 .52a1.42 1.42 0 0 0 .71-1.12 1 1 0 0 0-1.08-1.08c-.67 0-1 .34-1.79 1.6V5.43zM87.11.93a1.19 1.19 0 1 0 1.19 1.19A1.18 1.18 0 0 0 87.11.93zm2.08 13.67v-.78l-1-.19V5.47h-.45l-2.35.6v.6l1 .22v6.78l-1 .22v.74zM72.4 28.9a10.79 10.79 0 0 0-.26-2.31 2.84 2.84 0 0 0-2.9-2.23c-2.16 0-3.46 1.82-3.46 4.92 0 2.87 1.27 4.54 3.5 4.54 1.45 0 2.23-.56 3.09-2.16l-.82-.34c-.56.86-1 1.19-1.75 1.19-1.34 0-2-1-2.16-3.61zm5 4.73v-.78l-1-.22v-12.7h-.48l-2.35.52v.63l1 .11v11.48l-1.08.22v.78zm9.72 0v-.78l-1-.22v-5.74c0-1.53-.78-2.38-2.16-2.38a3.55 3.55 0 0 0-2.46 1.08v-5.66h-.48l-2.35.52v.63l1 .19v11.4l-1.08.22v.78h3.76v-.78l-.89-.22v-6a2.62 2.62 0 0 1 1.71-.86c.78 0 1.08.48 1.08 1.82v5.04l-.89.19v.81zm7.82-4.73a10.81 10.81 0 0 0-.26-2.31 2.84 2.84 0 0 0-2.9-2.23c-2.16 0-3.46 1.82-3.46 4.92 0 2.87 1.27 4.54 3.5 4.54 1.45 0 2.23-.56 3.09-2.16l-.82-.34c-.56.86-1 1.19-1.75 1.19-1.34 0-2-1-2.16-3.61zm-4.77-.86c.22-2 .71-2.79 1.56-2.79s1.23.86 1.27 2.79zm13.32-21.97c.89 0 1.34.78 1.34 2.42 0 1.38-.41 2.09-1.27 2.09s-1.27-.71-1.27-2.27.37-2.23 1.19-2.23zm-4.54 8.53v-.78l-1-.22V7.83c0-1.53-.78-2.42-2.2-2.42a3.64 3.64 0 0 0-2.46 1.08V5.37h-.52l-2.31.6v.7l1.08.15v6.85l-1.08.22v.74h3.84v-.78l-1-.22V7.56a2.65 2.65 0 0 1 1.75-.82c.71 0 1 .48 1 1.53v5.4l-1 .19v.74zm8.68-8V5.52h-1.87a1.41 1.41 0 0 1-.34 0 3 3 0 0 1-.82-.15 4.61 4.61 0 0 0-1.19-.19 3 3 0 0 0-3.09 3.09 2.72 2.72 0 0 0 1.53 2.57c-1.19.74-1.68 1.34-1.68 2s.3.89 1 1.19c-1 .67-1.45 1.19-1.45 1.94 0 1.15 1.3 1.9 3.31 1.9 2.68 0 4.43-1.27 4.43-3.24 0-1.38-.82-2-2.57-2.12l-2.23-.11c-.56 0-.78-.15-.78-.41s.26-.48.71-.78a3 3 0 0 0 1 .15 3 3 0 0 0 3.13-3 2.59 2.59 0 0 0-.67-1.82zm-5.4 7.63c3.69.22 4 .3 4 1.15s-1.15 1.53-2.68 1.53c-1.23 0-2-.48-2-1.3a1.7 1.7 0 0 1 .67-1.38zm13-4.36c0-3.09-1-4.58-3.13-4.58s-3.46 1.86-3.46 5c0 2.9 1.27 4.51 3.5 4.51 1.45 0 2.12-.48 3.05-2.16l-.82-.34c-.56.86-1 1.19-1.71 1.19-1.34 0-2-1-2.16-3.58zm-4.73-.89c.22-1.94.67-2.79 1.53-2.79s1.23.78 1.3 2.79zm9-3.61h-.46l-2.23.6v.6l1.08.19v6.91l-1.08.22v.74h4.13v-.78l-1.3-.19V8.78a2.14 2.14 0 0 1 1.15-1.56l1 .52a1.42 1.42 0 0 0 .71-1.12 1 1 0 0 0-1.08-1.08c-.67 0-1 .34-1.79 1.6V5.43zM98.09 19.89a1.25 1.25 0 0 0-1.27 1.23 1.18 1.18 0 0 0 1.19 1.19 1.24 1.24 0 0 0 1.23-1.23 1.19 1.19 0 0 0-1.15-1.19zm2 13.7v-.78l-1-.22v-8.12h-.45l-2.35.6v.6l1 .22v6.78l-1 .22v.78h18.43v-.78l-1-.22V27.2c0-1.86-.67-2.64-2.27-2.64a3.47 3.47 0 0 0-2.57 1.23 2.27 2.27 0 0 0-2.09-1.19 3.69 3.69 0 0 0-2.53 1.08v-1.23h-.48l-2.35.6v.62l1.08.19v6.81l-1.08.22v.78h3.8v-.78l-.86-.22v-6a2.23 2.23 0 0 1 1.68-.86c.82 0 1.19.52 1.19 1.68v5.18l-1 .22v.78H110v-.78l-.96-.22v-6c.75-.67 1.16-.89 1.75-.89.78 0 1.12.48 1.12 1.71v5.18l-1 .22v.78h-10.74z"/></svg>
